# xmcd
#
# Track frame offsets:
#	150
#	12412
#	26028
#	42743
#	63019
#	82645
#	100760
#	111025
#	127664
#	147712
#	164132
#	180266
#
# Disc length: 2703 seconds
#
# Revision: 0
# Processed by: cddbd v1.4PL0 Copyright (c) Steve Scherf et al.
# Submitted via: dBpowerAMP V4.0
#
DISCID=960a8d0c
DTITLE=Bron-White Project - Labor of Love
DYEAR=1999
DGENRE=Blues
TTITLE0=22 Days
TTITLE1=Self Made Fool
TTITLE2=Sorry Baby
TTITLE3=You Left Me Without Love
TTITLE4=The Right to Sing the Blues
TTITLE5=One More Thing
TTITLE6=Just to Get Away from You
TTITLE7=Slippery When Wet
TTITLE8=You On My Mind Tonight
TTITLE9=The Last Wave
TTITLE10=Talk Talk
TTITLE11=Don't Recognize It Till It's Gone
EXTD=
EXTT0=
EXTT1=
EXTT2=
EXTT3=
EXTT4=
EXTT5=
EXTT6=
EXTT7=
EXTT8=
EXTT9=
EXTT10=
EXTT11=
PLAYORDER=
